<?xml version="1.0" encoding="utf-8"?>
<!-- Svg Vector Icons : http://www.onlinewebfonts.com/icon -->
<!DOCTYPE svg PUBLIC "-//W3C//DTD SVG 1.1//EN" "http://www.w3.org/Graphics/SVG/1.1/DTD/svg11.dtd">
<svg version="1.1" xmlns="http://www.w3.org/2000/svg" xmlns:xlink="http://www.w3.org/1999/xlink" x="0px" y="0px" viewBox="0 0 256 256" enable-background="new 0 0 256 256" xml:space="preserve">
<metadata> Svg Vector Icons : http://www.onlinewebfonts.com/icon </metadata>
<g><g><g><path fill="#000000" d="M53.4,223.8c-10.9-19.2-3.5-49.4,19.1-72c25.6-25.6,61-31.7,79.1-13.7c0,0,0,0,0.1,0.1c-3.6,10.5-15.1,32.9-49.7,45.1C70.3,194.5,58.1,212.1,53.4,223.8z M141,167.8c-8.3,8.3-20,16.4-36.7,22.2c-33.8,11.8-43.2,31.2-45.8,40.6c0.1,0.1,0.2,0.3,0.4,0.4c18.1,18.1,53.5,12,79.1-13.6c22.8-22.8,30.1-53.3,18.7-72.6C154,151.2,149.2,159.6,141,167.8z M71.1,84.5c36.5,3.2,56.2-12.5,63.8-20.6c0,0,0-0.1,0-0.1c-9-23.9-43.8-33-77.7-20.2c-29.9,11.3-49.1,35.7-47,57.7C19.3,92.6,37.7,81.5,71.1,84.5z M89.9,130.3c30.2-11.4,49.4-36.2,47-58.4c-5.1,4.7-12.9,10.4-23.8,14.4c-10.9,4.1-25,6.7-42.6,5.2c-35.6-3.1-52.2,10.6-58.5,18.1c0.1,0.2,0.1,0.3,0.2,0.5C21.2,134,56,143.1,89.9,130.3z M195.5,80.4c21.9-29.4,18.9-54.4,16-65.1c0,0-0.1,0-0.1,0c-25.1-4.9-51.1,20-58,55.5c-6.1,31.3,4.6,60.5,24.4,70.3C175.2,128.7,175.4,107.3,195.5,80.4z M219.3,17.8c1.3,6.8,2,16.4-0.2,27.8c-2.2,11.5-7.4,24.8-18,38.9c-21.4,28.7-18.4,50-15.3,59.3c0.2,0,0.3,0.1,0.5,0.1c25.1,4.9,51.1-20,58-55.5C250.5,56.8,239.5,27.4,219.3,17.8z"/></g><g></g><g></g><g></g><g></g><g></g><g></g><g></g><g></g><g></g><g></g><g></g><g></g><g></g><g></g><g></g></g></g>
</svg>